<svg xmlns="http://www.w3.org/2000/svg" shape-rendering="geometricPrecision" text-rendering="geometricPrecision" image-rendering="optimizeQuality" fill-rule="evenodd" clip-rule="evenodd" viewBox="0 0 512 265.789"><path fill="#427D2A" d="M0 0h512v265.789H0z"/><path fill="#87CC71" d="M427.351 41.013c-.271 19.77 17.153 37.654 37.661 37.9v105.161c-21.603-.271-39.483 17.153-39.729 40.706H84.649c.271-21.603-17.156-39.487-37.661-39.733V79.886c21.685.246 39.58-17.167 39.826-38.873h340.537z"/><path fill="#427D2A" d="M249.345 51.958h13.31c44.518 0 80.938 36.421 80.938 80.942 0 44.518-36.438 80.934-80.938 80.934h-13.31c-44.499 0-80.937-36.416-80.937-80.934 0-44.521 36.42-80.942 80.937-80.942z"/><path fill="#fff" d="M238.456 91.391h-12.875v29.977h-8.403v7.628h8.403v6.483h-8.403v7.628h8.403v31.296h12.83v-31.296h18.391l17.703 29.977h11.911v-29.977h8.403v-7.628h-8.403v-6.483h8.403v-7.628h-8.403V91.391h-11.911v29.977h-18.643l-17.406-29.977zm-.045 44.088v-6.483h10.058l3.827 6.483h-13.885zm25.648 0h10.446v-6.483h-14.211l3.765 6.483zm10.446 7.628h-6.018l6.018 10.363v-10.363zm-36.094-21.739v-9.403l5.552 9.403h-5.552z"/></svg>